<svg width="191" height="32" viewBox="0 0 191 32" fill="none" xmlns="http://www.w3.org/2000/svg">
<path d="M12.4752 29.0538C11.8843 29.3738 11.3085 29.6844 10.7347 29.999C10.6235 30.06 10.5255 30.0869 10.401 30.0213C8.28172 28.9048 6.197 27.7292 4.31435 26.2124C3.19711 25.3122 2.18667 24.3019 1.38282 23.0886C0.636407 21.962 0.187684 20.7232 0.0672595 19.3601C-0.0746917 17.7533 0.058267 16.1441 0.0200015 14.5365C0.00836921 14.0478 0.0181995 13.5585 0.0181995 13.0803C0.10966 13.0033 0.200459 13.029 0.284404 13.0286C0.9029 13.026 1.52163 13.0366 2.13979 13.0217C2.36573 13.0162 2.43953 13.0799 2.43811 13.3207C2.42883 14.8897 2.42341 16.4589 2.4381 18.0278C2.44706 18.9849 2.57287 19.928 2.88226 20.8377C3.06174 21.3655 3.06083 21.3682 3.58791 21.2695C5.32123 20.9448 6.9378 20.2991 8.44522 19.3655C10.0461 18.3741 11.4203 17.1222 12.5307 15.566C12.6769 15.3611 12.6529 15.2432 12.4822 15.1019C12.1608 14.8359 11.8426 14.5658 11.5237 14.2966C11.4573 14.2405 11.3939 14.1808 11.3254 14.0451C12.9493 13.676 14.5732 13.307 16.217 12.9334C16.217 14.8265 16.217 16.6997 16.217 18.5989C16.0339 18.5153 15.9221 18.3754 15.7931 18.2633C15.4963 18.0054 15.2021 17.7434 14.9188 17.47C14.7627 17.3194 14.6658 17.347 14.5373 17.5093C13.7629 18.4867 12.9023 19.3761 11.9536 20.1756C10.0998 21.7376 8.00657 22.7941 5.67799 23.3631C5.44552 23.4199 5.1935 23.4231 4.96894 23.5767C5.07506 23.7875 5.2544 23.8985 5.40988 24.0294C6.5179 24.962 7.72273 25.7486 8.94566 26.5074C9.4278 26.8065 9.9151 27.0969 10.3932 27.4026C10.533 27.492 10.6424 27.4975 10.7835 27.4091C11.2169 27.1375 11.6557 26.8748 12.0968 26.6166C12.2303 26.5385 12.2867 26.4379 12.2857 26.2813C12.2777 25.0396 12.2788 23.7978 12.2644 22.5562C12.2617 22.3236 12.3335 22.1615 12.4938 21.9998C13.2188 21.268 13.9316 20.5232 14.649 19.7834C14.7085 19.7219 14.7601 19.6479 14.9023 19.6133C14.9023 21.3422 14.9023 23.0477 14.9023 24.7786C15.1463 24.7185 15.2791 24.5717 15.4259 24.4576C16.4148 23.6884 17.2959 22.8159 17.8877 21.673C18.3421 20.7955 18.581 19.859 18.6275 18.866C18.717 16.9552 18.6623 15.0437 18.6607 13.1325C18.6607 13.109 18.67 13.0855 18.6788 13.0434C19.4724 13.0434 20.2674 13.0434 21.0578 13.0434C21.102 13.1009 21.0855 13.1599 21.0855 13.2154C21.0857 14.9479 21.0925 16.6804 21.083 18.4129C21.0707 20.6308 20.3666 22.5795 18.9364 24.2499C18.0741 25.2571 17.0614 26.077 16.0024 26.8438C14.879 27.6571 13.6966 28.3712 12.4752 29.0538Z" fill="#2DD4BF"/>
<path d="M16.3135 8.44393C17.8843 7.39279 19.4411 6.3493 21.04 5.27757C21.04 7.32896 21.04 9.32788 21.04 11.3287C20.9876 11.3783 20.9216 11.3593 20.8602 11.3594C18.8496 11.3599 16.839 11.3578 14.8284 11.3625C14.6489 11.3629 14.5232 11.3106 14.3962 11.1721C13.2269 9.89736 12.0492 8.63082 10.8739 7.362C10.8411 7.32659 10.8074 7.29199 10.7736 7.25757C10.5441 7.02381 10.5468 7.02648 10.3184 7.2758C9.12271 8.58109 7.92497 9.88437 6.73001 11.1903C6.63312 11.2962 6.53549 11.362 6.38356 11.3618C4.29384 11.3584 2.20412 11.361 0.114395 11.3616C0.0992341 11.3616 0.0840708 11.3535 0.0479736 11.3433C0.0479736 9.32502 0.0479736 7.30098 0.0479736 5.22147C0.345954 5.42382 0.606689 5.60114 0.867684 5.77806C2.13697 6.63845 3.40765 7.4967 4.67386 8.36189C4.81785 8.46028 4.9019 8.46775 5.02754 8.32179C6.42992 6.69266 7.84039 5.07095 9.24775 3.44638C9.67367 2.95473 10.0967 2.46044 10.5436 1.94116C10.8104 2.24137 11.0673 2.52441 11.3178 2.81332C12.3251 3.97499 13.3302 5.1386 14.3365 6.30123C14.916 6.97078 15.4953 7.64046 16.0768 8.30815C16.1358 8.37591 16.175 8.48759 16.3135 8.44393Z" fill="#2DD4BF"/>
<path d="M32.1073 21.7241C32.1425 21.3235 32.269 20.9263 32.4869 20.5326C32.7048 20.139 32.9544 19.8227 33.2355 19.5837C33.8401 19.9633 34.5149 20.2936 35.26 20.5748C36.0122 20.849 36.7573 20.986 37.4954 20.986C38.2195 20.986 38.7642 20.8209 39.1298 20.4905C39.4953 20.1601 39.6781 19.7664 39.6781 19.3095C39.6781 18.951 39.5586 18.6066 39.3196 18.2762C39.0876 17.9388 38.6693 17.6435 38.0648 17.3905L35.5236 16.336C34.645 15.9635 33.9315 15.4784 33.3832 14.8809C32.8349 14.2834 32.5607 13.5067 32.5607 12.5506C32.5607 11.7282 32.7751 10.9971 33.2039 10.3574C33.6327 9.71775 34.2197 9.21514 34.9648 8.84961C35.717 8.48407 36.5675 8.3013 37.5165 8.3013C38.4514 8.3013 39.3336 8.42432 40.1631 8.67035C40.9926 8.91638 41.6815 9.17648 42.2298 9.45063C42.2087 9.85834 42.1103 10.2555 41.9346 10.6421C41.7658 11.0288 41.5374 11.3486 41.2492 11.6017C40.7079 11.3416 40.0928 11.1096 39.4039 10.9057C38.715 10.7019 38.0929 10.6 37.5376 10.6C36.8487 10.6 36.3285 10.7651 35.977 11.0955C35.6326 11.4189 35.4604 11.7844 35.4604 12.1921C35.4604 12.5577 35.5834 12.867 35.8294 13.12C36.0755 13.3661 36.4445 13.5945 36.9366 13.8054L39.4988 14.8598C40.1385 15.127 40.6938 15.4573 41.1648 15.851C41.6428 16.2446 42.0119 16.7016 42.272 17.2217C42.5391 17.7349 42.6727 18.2973 42.6727 18.9088C42.6727 19.7383 42.4723 20.4834 42.0716 21.1442C41.678 21.805 41.084 22.3287 40.2896 22.7153C39.4953 23.1019 38.5006 23.2952 37.3056 23.2952C36.441 23.2952 35.5412 23.1582 34.6063 22.884C33.6784 22.6099 32.8454 22.2232 32.1073 21.7241ZM45.0074 11.4329C45.2253 11.3908 45.4713 11.3627 45.7455 11.3486C46.0267 11.3345 46.2551 11.3275 46.4309 11.3275C46.6207 11.3275 46.8386 11.3345 47.0846 11.3486C47.3377 11.3627 47.5802 11.3908 47.8122 11.4329V23C47.5802 23.0422 47.3377 23.0703 47.0846 23.0844C46.8386 23.0984 46.6207 23.1054 46.4309 23.1054C46.2551 23.1054 46.0267 23.0984 45.7455 23.0844C45.4713 23.0703 45.2253 23.0422 45.0074 23V11.4329ZM51.8916 11.4329C52.1728 11.3767 52.4821 11.3381 52.8195 11.317C53.164 11.2959 53.4557 11.2853 53.6947 11.2853C53.9267 11.2853 54.2149 11.2959 54.5593 11.317C54.9108 11.3381 55.206 11.3767 55.445 11.4329L56.7631 16.3782C56.8123 16.561 56.872 16.7965 56.9423 17.0847C57.0126 17.3729 57.0829 17.6822 57.1532 18.0126C57.2235 18.3359 57.2833 18.6417 57.3325 18.9299H57.4485C57.4906 18.6417 57.5434 18.3359 57.6066 18.0126C57.6769 17.6892 57.7472 17.3834 57.8175 17.0952C57.8878 16.8 57.9511 16.561 58.0073 16.3782L59.3148 11.4329C59.5749 11.3837 59.8736 11.3486 60.211 11.3275C60.5555 11.2994 60.8402 11.2853 61.0651 11.2853C61.3041 11.2853 61.5994 11.2994 61.9509 11.3275C62.3023 11.3486 62.6081 11.3837 62.8682 11.4329L64.0175 22.9684C63.6168 23.0668 63.1459 23.116 62.6046 23.116C62.4007 23.116 62.1828 23.1054 61.9509 23.0844C61.7259 23.0703 61.5185 23.0457 61.3287 23.0105L60.9491 18.35C60.914 17.9423 60.8894 17.4854 60.8753 16.9792C60.8683 16.4661 60.8648 15.967 60.8648 15.4819C60.8648 14.9899 60.8648 14.5611 60.8648 14.1955H60.7383L58.8087 21.2391C58.6048 21.2813 58.3623 21.3094 58.0811 21.3235C57.7999 21.3375 57.5609 21.3446 57.3641 21.3446C57.1673 21.3446 56.9283 21.3375 56.6471 21.3235C56.3729 21.3094 56.141 21.2813 55.9512 21.2391L54.0216 14.1955H53.895C53.895 14.5611 53.8915 14.9899 53.8845 15.4819C53.8845 15.967 53.8775 16.4661 53.8634 16.9792C53.8493 17.4854 53.8247 17.9458 53.7896 18.3605L53.4311 23.0105C53.2413 23.0457 53.0339 23.0703 52.809 23.0844C52.5911 23.1054 52.3767 23.116 52.1658 23.116C51.9057 23.116 51.6491 23.1019 51.396 23.0738C51.143 23.0457 50.9251 23.0105 50.7423 22.9684L51.8916 11.4329ZM75.7442 15.2921C75.7442 16.1708 75.5474 16.9019 75.1537 17.4854C74.7601 18.0688 74.2153 18.5046 73.5194 18.7928C72.8305 19.074 72.0432 19.2146 71.1575 19.2146C71.0169 19.2146 70.8025 19.2146 70.5143 19.2146C70.2331 19.2146 69.9414 19.2146 69.6391 19.2146C69.3368 19.2146 69.0803 19.2146 68.8694 19.2146C68.6655 19.2146 68.5636 19.2146 68.5636 19.2146V17.1585C68.7463 17.1444 68.9994 17.1374 69.3228 17.1374C69.6532 17.1304 69.973 17.1233 70.2823 17.1163C70.5916 17.1093 70.8165 17.1058 70.9571 17.1058C71.4914 17.1058 71.8956 17.0109 72.1697 16.8211C72.4509 16.6242 72.6372 16.3852 72.7286 16.1041C72.827 15.8158 72.8762 15.5382 72.8762 15.2711C72.8762 15.018 72.827 14.7509 72.7286 14.4697C72.6372 14.1885 72.4509 13.9495 72.1697 13.7527C71.8956 13.5559 71.4914 13.4574 70.9571 13.4574C70.7462 13.4574 70.5529 13.4574 70.3772 13.4574C70.2015 13.4504 69.9765 13.4434 69.7024 13.4364V23C69.4704 23.0422 69.2314 23.0703 68.9854 23.0844C68.7393 23.0984 68.5214 23.1054 68.3316 23.1054C68.1559 23.1054 67.9274 23.0984 67.6462 23.0844C67.3721 23.0703 67.126 23.0422 66.9081 23V11.5384L67.0136 11.4224C67.6181 11.4083 68.2824 11.3943 69.0064 11.3802C69.7375 11.3591 70.4545 11.3486 71.1575 11.3486C72.0432 11.3486 72.8305 11.4857 73.5194 11.7598C74.2153 12.034 74.7601 12.4628 75.1537 13.0462C75.5474 13.6297 75.7442 14.3783 75.7442 15.2921ZM80.6992 23.0422H79.5077C79.0086 23.0422 78.615 22.8981 78.3267 22.6099C78.0385 22.3217 77.8944 21.928 77.8944 21.4289V11.4646L78.0104 11.3486H79.0859C79.6342 11.3486 80.0384 11.4857 80.2985 11.7598C80.5656 12.0269 80.6992 12.4698 80.6992 13.0884V23.0422ZM85.8026 20.7119C85.7745 21.5765 85.6269 22.1811 85.3598 22.5255C85.0926 22.87 84.6217 23.0422 83.9468 23.0422H79.5077L78.3689 21.1442C79.0719 20.9966 79.8029 20.8876 80.5621 20.8173C81.3213 20.747 81.9856 20.7119 82.555 20.7119H85.8026ZM87.9349 11.5489L88.0403 11.4329H90.6658V13.6683C90.6658 13.8652 90.6693 14.0479 90.6764 14.2166C90.6834 14.3783 90.6869 14.5716 90.6869 14.7966V19.6786C90.6869 19.8965 90.6834 20.0898 90.6764 20.2585C90.6693 20.4202 90.6658 20.5994 90.6658 20.7962V23.0316H89.5481C89.049 23.0316 88.6554 22.8875 88.3672 22.5993C88.079 22.3041 87.9349 21.9104 87.9349 21.4184V11.5489ZM94.9468 16.0513C95.003 16.22 95.0417 16.4098 95.0628 16.6207C95.0839 16.8246 95.0944 16.9968 95.0944 17.1374C95.0944 17.2991 95.0839 17.4854 95.0628 17.6962C95.0417 17.9001 95.003 18.0864 94.9468 18.2551H91.9522C91.7976 18.2551 91.5797 18.2551 91.2985 18.2551C91.0173 18.2551 90.7326 18.2551 90.4444 18.2551C90.1562 18.2481 89.9137 18.241 89.7168 18.234V16.0935C89.9137 16.0865 90.1562 16.0795 90.4444 16.0724C90.7326 16.0654 91.0173 16.0619 91.2985 16.0619C91.5797 16.0548 91.7976 16.0513 91.9522 16.0513H94.9468ZM96.0539 11.4329C96.0891 11.6368 96.1102 11.8301 96.1172 12.0129C96.1242 12.1956 96.1278 12.3679 96.1278 12.5296C96.1278 12.6912 96.1102 12.874 96.075 13.0779C96.0469 13.2817 95.9942 13.4891 95.9169 13.7H91.9522C91.7976 13.7 91.5797 13.7 91.2985 13.7C91.0173 13.6929 90.7326 13.6859 90.4444 13.6789C90.1562 13.6718 89.9137 13.6648 89.7168 13.6578V11.4329H96.0539ZM96.4125 20.7541C96.4125 21.6046 96.2789 22.1986 96.0118 22.5361C95.7517 22.8664 95.3053 23.0316 94.6726 23.0316H89.7485V20.8595C90.0789 20.8455 90.3565 20.8314 90.5815 20.8173C90.8134 20.7962 91.0384 20.7822 91.2563 20.7752C91.4742 20.7611 91.7343 20.7541 92.0366 20.7541H96.4125Z" fill="white"/>
<path d="M99.0492 8.59654C99.2741 8.55437 99.5202 8.52625 99.7873 8.51219C100.054 8.49813 100.283 8.4911 100.473 8.4911C100.669 8.4911 100.898 8.49813 101.158 8.51219C101.418 8.52625 101.661 8.55437 101.886 8.59654V23C101.661 23.0422 101.418 23.0703 101.158 23.0844C100.898 23.0984 100.669 23.1054 100.473 23.1054C100.283 23.1054 100.054 23.0984 99.7873 23.0844C99.5202 23.0703 99.2741 23.0422 99.0492 23V8.59654ZM105.337 11.4857C105.555 11.4365 105.826 11.3978 106.149 11.3697C106.472 11.3416 106.725 11.3275 106.908 11.3275C107.112 11.3275 107.376 11.3345 107.699 11.3486C108.029 11.3556 108.303 11.3837 108.521 11.4329L107.92 14.5646L107.762 14.6173C107.79 15.1094 107.815 15.6507 107.836 16.2411C107.864 16.8246 107.885 17.3694 107.899 17.8755C107.913 18.3746 107.92 18.7507 107.92 19.0037V23C107.688 23.0422 107.463 23.0703 107.246 23.0844C107.035 23.0984 106.834 23.1054 106.645 23.1054C106.476 23.1054 106.268 23.0984 106.022 23.0844C105.783 23.0703 105.555 23.0422 105.337 23V11.4857ZM109.028 17.1058C108.957 16.9722 108.866 16.7929 108.753 16.568C108.648 16.336 108.535 16.0935 108.416 15.8404C108.303 15.5874 108.195 15.3484 108.089 15.1234C107.991 14.8915 107.906 14.7052 107.836 14.5646L106.992 13.6262L108.521 11.4329L111.6 17.3272C111.671 17.4537 111.762 17.6365 111.874 17.8755C111.994 18.1145 112.113 18.3711 112.233 18.6452C112.359 18.9194 112.479 19.183 112.591 19.436C112.711 19.6821 112.806 19.8789 112.876 20.0265L113.815 20.9966L112.128 23L109.028 17.1058ZM115.365 11.454V22.9578C115.133 23.007 114.855 23.0422 114.532 23.0633C114.215 23.0914 113.966 23.1054 113.783 23.1054C113.649 23.1054 113.481 23.1019 113.277 23.0949C113.073 23.0879 112.866 23.0773 112.655 23.0633C112.451 23.0562 112.275 23.0351 112.128 23L112.813 20.0265L112.971 19.9843C112.943 19.5626 112.908 19.067 112.866 18.4976C112.823 17.9212 112.788 17.3623 112.76 16.8211C112.732 16.2798 112.718 15.8475 112.718 15.5241V12.8775C112.718 12.2589 112.845 11.8442 113.098 11.6333C113.358 11.4224 113.762 11.317 114.31 11.317H115.249L115.365 11.454ZM125.442 11.4329C125.646 11.3837 125.832 11.3556 126.001 11.3486C126.177 11.3345 126.349 11.3275 126.517 11.3275C126.721 11.3275 126.939 11.3381 127.171 11.3591C127.41 11.3802 127.656 11.4294 127.909 11.5068L128.036 11.6544L124.451 23.0105C124.17 23.0457 123.822 23.0703 123.407 23.0844C122.992 23.1054 122.609 23.116 122.258 23.116C121.794 23.116 121.4 23.0422 121.077 22.8946C120.753 22.7399 120.518 22.4025 120.37 21.8823L117.186 11.6227C117.432 11.5173 117.688 11.4365 117.956 11.3802C118.23 11.324 118.511 11.2959 118.799 11.2959C119.207 11.2959 119.53 11.3943 119.769 11.5911C120.015 11.7809 120.212 12.1218 120.36 12.6139L121.783 17.169C121.938 17.6892 122.085 18.241 122.226 18.8245C122.374 19.4009 122.511 20.0125 122.637 20.6592C122.665 20.7716 122.729 20.8279 122.827 20.8279L125.442 11.4329ZM129.824 11.5489L129.929 11.4329H132.555V13.6683C132.555 13.8652 132.558 14.0479 132.565 14.2166C132.572 14.3783 132.576 14.5716 132.576 14.7966V19.6786C132.576 19.8965 132.572 20.0898 132.565 20.2585C132.558 20.4202 132.555 20.5994 132.555 20.7962V23.0316H131.437C130.938 23.0316 130.544 22.8875 130.256 22.5993C129.968 22.3041 129.824 21.9104 129.824 21.4184V11.5489ZM136.836 16.0513C136.892 16.22 136.93 16.4098 136.951 16.6207C136.973 16.8246 136.983 16.9968 136.983 17.1374C136.983 17.2991 136.973 17.4854 136.951 17.6962C136.93 17.9001 136.892 18.0864 136.836 18.2551H133.841C133.686 18.2551 133.468 18.2551 133.187 18.2551C132.906 18.2551 132.621 18.2551 132.333 18.2551C132.045 18.2481 131.802 18.241 131.606 18.234V16.0935C131.802 16.0865 132.045 16.0795 132.333 16.0724C132.621 16.0654 132.906 16.0619 133.187 16.0619C133.468 16.0548 133.686 16.0513 133.841 16.0513H136.836ZM137.943 11.4329C137.978 11.6368 137.999 11.8301 138.006 12.0129C138.013 12.1956 138.016 12.3679 138.016 12.5296C138.016 12.6912 137.999 12.874 137.964 13.0779C137.936 13.2817 137.883 13.4891 137.806 13.7H133.841C133.686 13.7 133.468 13.7 133.187 13.7C132.906 13.6929 132.621 13.6859 132.333 13.6789C132.045 13.6718 131.802 13.6648 131.606 13.6578V11.4329H137.943ZM138.301 20.7541C138.301 21.6046 138.168 22.1986 137.9 22.5361C137.64 22.8664 137.194 23.0316 136.561 23.0316H131.637V20.8595C131.968 20.8455 132.245 20.8314 132.47 20.8173C132.702 20.7962 132.927 20.7822 133.145 20.7752C133.363 20.7611 133.623 20.7541 133.925 20.7541H138.301ZM139.63 22.0932C139.63 21.8612 139.676 21.6082 139.767 21.334C139.859 21.0599 139.982 20.8033 140.137 20.5643C140.298 20.3253 140.474 20.146 140.664 20.0265C141.163 20.3077 141.725 20.5572 142.351 20.7752C142.983 20.9931 143.634 21.0985 144.302 21.0915C144.625 21.0915 144.917 21.0423 145.177 20.9439C145.437 20.8455 145.644 20.7084 145.799 20.5326C145.953 20.3499 146.031 20.132 146.031 19.8789C146.031 19.6118 145.929 19.3728 145.725 19.1619C145.521 18.951 145.201 18.7682 144.765 18.6136L142.899 17.8966C142.351 17.7068 141.852 17.4713 141.402 17.1901C140.959 16.9019 140.608 16.5539 140.347 16.1462C140.087 15.7385 139.957 15.257 139.957 14.7017C139.957 14.0198 140.137 13.4118 140.495 12.8775C140.854 12.3362 141.363 11.9145 142.024 11.6122C142.692 11.3029 143.486 11.1447 144.407 11.1377C145.18 11.1377 145.946 11.2291 146.706 11.4119C147.472 11.5946 148.115 11.802 148.635 12.034C148.635 12.4347 148.551 12.8318 148.382 13.2255C148.213 13.6121 147.981 13.9214 147.686 14.1534C147.173 13.9214 146.614 13.7316 146.01 13.584C145.412 13.4293 144.864 13.352 144.365 13.352C143.901 13.359 143.539 13.4645 143.279 13.6683C143.019 13.8722 142.889 14.1288 142.889 14.4381C142.889 14.7052 142.998 14.909 143.215 15.0496C143.44 15.1902 143.739 15.3273 144.112 15.4609L145.946 16.1568C146.86 16.4872 147.602 16.9441 148.171 17.5275C148.741 18.111 149.025 18.835 149.025 19.6996C149.025 20.4448 148.825 21.088 148.424 21.6292C148.024 22.1635 147.472 22.5747 146.769 22.8629C146.066 23.1441 145.254 23.2882 144.333 23.2952C143.279 23.3023 142.344 23.1757 141.528 22.9156C140.713 22.6556 140.08 22.3814 139.63 22.0932ZM149.488 13.7105C149.446 13.4996 149.418 13.3028 149.404 13.12C149.39 12.9302 149.383 12.7545 149.383 12.5928C149.383 12.4382 149.39 12.2589 149.404 12.0551C149.418 11.8442 149.446 11.6368 149.488 11.4329H158.662C158.704 11.5946 158.735 11.7774 158.757 11.9812C158.785 12.1781 158.799 12.3433 158.799 12.4768C158.799 12.8775 158.69 13.1833 158.472 13.3942C158.261 13.6051 157.895 13.7105 157.375 13.7105H156.616C156.475 13.7105 156.286 13.707 156.047 13.7C155.808 13.6929 155.625 13.6894 155.498 13.6894H152.736C152.595 13.6894 152.398 13.6929 152.145 13.7C151.899 13.707 151.706 13.7105 151.565 13.7105H149.488ZM152.715 14.9653C152.715 14.7403 152.718 14.533 152.725 14.3432C152.732 14.1463 152.736 13.9284 152.736 13.6894V12.5928H155.498V13.6894C155.498 13.9284 155.502 14.1463 155.509 14.3432C155.516 14.533 155.519 14.7403 155.519 14.9653V23C155.344 23.0351 155.115 23.0598 154.834 23.0738C154.553 23.0949 154.314 23.1054 154.117 23.1054C153.927 23.1054 153.695 23.0949 153.421 23.0738C153.147 23.0598 152.911 23.0351 152.715 23V14.9653ZM160.479 11.4329C160.697 11.3908 160.943 11.3627 161.217 11.3486C161.499 11.3345 161.727 11.3275 161.903 11.3275C162.093 11.3275 162.311 11.3345 162.557 11.3486C162.81 11.3627 163.052 11.3908 163.284 11.4329V23C163.052 23.0422 162.81 23.0703 162.557 23.0844C162.311 23.0984 162.093 23.1054 161.903 23.1054C161.727 23.1054 161.499 23.0984 161.217 23.0844C160.943 23.0703 160.697 23.0422 160.479 23V11.4329ZM166.626 11.4857C166.843 11.4365 167.114 11.3978 167.437 11.3697C167.761 11.3416 168.014 11.3275 168.197 11.3275C168.4 11.3275 168.664 11.3345 168.987 11.3486C169.318 11.3556 169.592 11.3837 169.81 11.4329L169.209 14.5646L169.051 14.6173C169.079 15.1094 169.103 15.6507 169.124 16.2411C169.153 16.8246 169.174 17.3694 169.188 17.8755C169.202 18.3746 169.209 18.7507 169.209 19.0037V23C168.977 23.0422 168.752 23.0703 168.534 23.0844C168.323 23.0984 168.123 23.1054 167.933 23.1054C167.764 23.1054 167.557 23.0984 167.311 23.0844C167.072 23.0703 166.843 23.0422 166.626 23V11.4857ZM170.316 17.1058C170.246 16.9722 170.154 16.7929 170.042 16.568C169.936 16.336 169.824 16.0935 169.704 15.8404C169.592 15.5874 169.483 15.3484 169.378 15.1234C169.279 14.8915 169.195 14.7052 169.124 14.5646L168.281 13.6262L169.81 11.4329L172.889 17.3272C172.959 17.4537 173.05 17.6365 173.163 17.8755C173.282 18.1145 173.402 18.3711 173.521 18.6452C173.648 18.9194 173.767 19.183 173.88 19.436C173.999 19.6821 174.094 19.8789 174.165 20.0265L175.103 20.9966L173.416 23L170.316 17.1058ZM176.653 11.454V22.9578C176.421 23.007 176.143 23.0422 175.82 23.0633C175.504 23.0914 175.254 23.1054 175.071 23.1054C174.938 23.1054 174.769 23.1019 174.565 23.0949C174.361 23.0879 174.154 23.0773 173.943 23.0633C173.739 23.0562 173.564 23.0351 173.416 23L174.101 20.0265L174.26 19.9843C174.231 19.5626 174.196 19.067 174.154 18.4976C174.112 17.9212 174.077 17.3623 174.049 16.8211C174.021 16.2798 174.006 15.8475 174.006 15.5241V12.8775C174.006 12.2589 174.133 11.8442 174.386 11.6333C174.646 11.4224 175.05 11.317 175.599 11.317H176.537L176.653 11.454ZM189.229 12.1394C189.18 12.5331 189.05 12.9373 188.839 13.352C188.628 13.7597 188.396 14.069 188.143 14.2799C187.637 13.9987 187.117 13.7843 186.583 13.6367C186.056 13.482 185.525 13.4047 184.991 13.4047C184.351 13.4047 183.803 13.5453 183.346 13.8265C182.889 14.1006 182.537 14.5294 182.291 15.1129C182.045 15.6963 181.922 16.438 181.922 17.3377C181.922 18.6312 182.186 19.5942 182.713 20.2269C183.24 20.8595 184.042 21.1758 185.117 21.1758C185.687 21.1758 186.217 21.1231 186.709 21.0177C187.208 20.9122 187.62 20.8138 187.943 20.7224L189.377 22.5888C188.997 22.7153 188.534 22.8348 187.985 22.9473C187.444 23.0527 186.878 23.1371 186.288 23.2003C185.697 23.2636 185.145 23.2952 184.632 23.2952C183.62 23.2952 182.755 23.1441 182.038 22.8418C181.328 22.5325 180.752 22.1073 180.309 21.566C179.873 21.0177 179.553 20.385 179.349 19.668C179.153 18.951 179.054 18.1813 179.054 17.3588C179.054 16.2411 179.209 15.2886 179.518 14.5013C179.835 13.707 180.267 13.0638 180.815 12.5717C181.363 12.0797 181.986 11.7176 182.681 11.4857C183.384 11.2537 184.123 11.1377 184.896 11.1377C185.697 11.1377 186.477 11.2291 187.237 11.4119C187.996 11.5876 188.66 11.8301 189.229 12.1394ZM186.773 19.7945C186.773 19.3657 186.79 18.9053 186.825 18.4132C186.868 17.9142 186.938 17.5135 187.036 17.2112L189.377 18.0337V22.5888L186.773 22.631V19.7945ZM184.548 16.5047C185.04 16.4836 185.525 16.4731 186.003 16.4731C186.488 16.4661 186.98 16.4626 187.479 16.4626C188.21 16.4626 188.709 16.5961 188.976 16.8632C189.243 17.1233 189.377 17.5029 189.377 18.002V18.7085C188.794 18.7296 188.168 18.7401 187.5 18.7401C186.839 18.7401 186.228 18.7401 185.665 18.7401C185.23 18.7401 184.91 18.6487 184.706 18.466C184.502 18.2762 184.4 17.9739 184.4 17.5592C184.4 17.3975 184.414 17.2112 184.442 17.0003C184.47 16.7894 184.506 16.6242 184.548 16.5047Z" fill="#2DD4BF"/>
</svg>
